<svg width="60" height="60" viewBox="0 0 60 60" fill="none" xmlns="http://www.w3.org/2000/svg">
<rect width="60" height="60" rx="30" fill="#00B934"/>
<path d="M36.5 30.6504V34.3504C36.5 37.4704 33.59 40.0004 30 40.0004C26.41 40.0004 23.5 37.4704 23.5 34.3504V30.6504C23.5 33.7704 26.41 36.0004 30 36.0004C33.59 36.0004 36.5 33.7704 36.5 30.6504Z" stroke="white" stroke-width="1.5" stroke-linecap="round" stroke-linejoin="round"/>
<path d="M36.5 25.65C36.5 26.56 36.25 27.4 35.81 28.12C34.74 29.88 32.54 31 30 31C27.46 31 25.26 29.88 24.19 28.12C23.75 27.4 23.5 26.56 23.5 25.65C23.5 24.09 24.23 22.68 25.4 21.66C26.58 20.63 28.2 20 30 20C31.8 20 33.42 20.63 34.6 21.65C35.77 22.68 36.5 24.09 36.5 25.65Z" stroke="white" stroke-width="1.5" stroke-linecap="round" stroke-linejoin="round"/>
<path d="M36.5 25.65V30.65C36.5 33.77 33.59 36 30 36C26.41 36 23.5 33.77 23.5 30.65V25.65C23.5 22.53 26.41 20 30 20C31.8 20 33.42 20.63 34.6 21.65C35.77 22.68 36.5 24.09 36.5 25.65Z" stroke="white" stroke-width="1.5" stroke-linecap="round" stroke-linejoin="round"/>
</svg>
